<?xml version="1.0" standalone="no"?>
<!DOCTYPE svg PUBLIC "-//W3C//DTD SVG 20010904//EN"
 "http://www.w3.org/TR/2001/REC-SVG-20010904/DTD/svg10.dtd">
<svg version="1.0" xmlns="http://www.w3.org/2000/svg"
 width="1024.000000pt" height="1024.000000pt" viewBox="0 0 1024.000000 1024.000000"
 preserveAspectRatio="xMidYMid meet">

<g transform="translate(0.000000,1024.000000) scale(0.100000,-0.100000)"
fill="#000000" stroke="none">
<path d="M4930 6584 c-406 -50 -667 -175 -926 -447 -192 -200 -308 -430 -366
-720 -28 -142 -30 -388 -4 -512 54 -258 155 -464 330 -673 133 -158 256 -256
436 -347 252 -127 547 -173 830 -131 116 18 307 75 403 121 209 98 444 301
565 485 170 257 246 509 246 805 -1 191 -15 277 -71 447 -74 224 -188 403
-368 577 -260 250 -571 384 -918 395 -67 2 -138 2 -157 0z m402 -182 c203 -53
349 -128 518 -270 235 -196 393 -467 435 -749 19 -126 19 -337 0 -445 -16 -90
-72 -262 -110 -338 -81 -161 -244 -353 -394 -466 -301 -226 -702 -304 -1077
-209 -455 115 -827 515 -929 1000 -21 96 -24 347 -6 445 16 88 67 251 102 329
82 182 279 411 452 525 100 67 246 134 361 166 149 41 213 49 376 46 133 -3
172 -8 272 -34z"/>
<path d="M4609 6179 c-44 -44 -11 -91 74 -104 67 -11 143 -108 161 -206 6 -32
2 -39 -38 -81 -42 -44 -86 -135 -86 -178 0 -19 9 -20 310 -20 l310 0 0 23 c0
36 -55 139 -94 176 -40 39 -44 61 -22 135 27 88 83 140 161 150 71 9 97 62 52
104 -30 28 -60 28 -123 -2 -105 -49 -183 -147 -205 -259 -11 -52 -14 -58 -33
-53 -12 3 -44 6 -72 6 l-52 0 -7 38 c-19 106 -99 213 -197 261 -72 36 -110 39
-139 10z"/>
<path d="M5675 5886 c-94 -43 -139 -120 -139 -233 1 -78 37 -143 107 -190 122
-82 286 -34 353 102 97 199 -119 415 -321 321z"/>
<path d="M3990 5650 c-25 -25 -26 -52 -2 -73 15 -14 40 -17 126 -17 125 0 146
8 146 53 0 52 -12 57 -137 57 -100 0 -115 -2 -133 -20z"/>
<path d="M4376 5648 c-21 -29 -20 -51 2 -71 37 -33 92 -11 92 37 0 51 -66 74
-94 34z"/>
<path d="M4760 5461 c-113 -5 -130 -9 -172 -34 -135 -79 -255 -260 -292 -439
-21 -101 -21 -291 0 -371 15 -58 67 -171 97 -211 15 -21 6 -30 319 344 67 80
152 180 190 222 l68 77 -2 208 -3 208 -40 1 c-22 0 -96 -2 -165 -5z m15 -236
c49 -48 21 -133 -48 -150 -59 -15 -127 58 -106 114 18 46 39 61 86 61 33 0 50
-6 68 -25z m-194 -324 c83 -83 -29 -204 -118 -127 -23 20 -28 32 -27 67 3 83
87 118 145 60z"/>
<path d="M5090 5259 l0 -215 96 -114 c53 -63 138 -162 188 -220 51 -58 132
-153 181 -212 49 -60 93 -108 98 -108 13 0 83 159 103 235 28 109 26 307 -4
405 -40 125 -88 206 -182 301 -119 120 -143 130 -331 137 l-149 5 0 -214z
m285 -13 c39 -17 55 -42 55 -87 0 -50 -33 -79 -91 -79 -39 0 -51 4 -68 26 -37
47 -24 111 27 138 34 19 35 19 77 2z m204 -343 c28 -26 35 -44 32 -86 -2 -27
-47 -67 -76 -67 -92 0 -136 106 -68 160 36 28 77 25 112 -7z"/>
<path d="M3896 5104 c-24 -23 -20 -70 6 -88 17 -12 50 -16 139 -16 114 0 118
1 137 25 23 29 19 59 -11 80 -32 22 -249 21 -271 -1z"/>
<path d="M5877 5102 c-24 -26 -21 -68 5 -86 29 -21 245 -23 271 -3 28 21 32
62 8 86 -19 19 -33 21 -144 21 -107 0 -126 -2 -140 -18z"/>
<path d="M4783 4648 c-100 -117 -210 -248 -244 -292 l-63 -79 30 -24 c112 -94
258 -158 407 -178 34 -5 48 -3 52 7 3 7 4 185 3 396 l-3 383 -182 -213z"/>
<path d="M5090 4464 l0 -396 53 7 c137 19 279 79 380 160 l58 46 -53 62 c-30
34 -115 134 -188 222 -74 88 -160 190 -192 228 l-58 68 0 -397z"/>
<path d="M3962 4824 c-12 -8 -22 -26 -22 -39 0 -41 25 -55 95 -55 70 0 95 14
95 54 0 13 -8 30 -18 39 -24 22 -119 23 -150 1z"/>
<path d="M5927 4822 c-20 -22 -22 -63 -5 -80 7 -7 42 -12 88 -12 62 0 80 4 93
18 22 24 21 55 -1 75 -27 25 -153 24 -175 -1z"/>
<path d="M3080 3363 c-8 -3 -18 -11 -22 -17 -13 -20 -9 -471 4 -484 8 -8 57
-12 154 -12 136 0 144 1 158 22 21 29 20 51 -2 71 -15 13 -39 17 -115 17 l-97
0 0 189 c0 185 -1 190 -22 205 -24 17 -33 18 -58 9z"/>
<path d="M3706 3361 c-21 -8 -204 -409 -213 -468 -5 -27 -2 -34 20 -44 43 -19
76 -4 98 45 10 24 26 47 35 50 9 3 56 6 104 6 l89 0 20 -44 c29 -67 87 -87
117 -41 11 18 7 34 -37 135 -28 63 -73 167 -100 230 -60 138 -76 154 -133 131z
m78 -288 c7 -22 5 -23 -49 -23 -55 0 -57 1 -51 23 3 13 15 45 27 73 l22 49 22
-50 c12 -27 25 -60 29 -72z"/>
<path d="M4658 3359 c-32 -18 -19 -56 62 -178 l80 -121 0 -95 c0 -90 1 -95 25
-111 33 -21 73 -11 85 22 6 14 10 63 10 109 0 91 6 108 80 210 70 97 82 122
70 144 -13 26 -54 37 -85 23 -12 -6 -46 -49 -75 -96 -28 -47 -53 -86 -55 -86
-1 0 -24 34 -49 75 -66 104 -103 131 -148 104z"/>
<path d="M6275 3362 c-40 -8 -45 -29 -45 -188 0 -149 -1 -153 -26 -183 -21
-26 -33 -31 -68 -31 -31 0 -48 6 -63 23 -39 42 -43 63 -43 209 0 99 -4 148
-12 156 -19 19 -86 15 -97 -6 -6 -12 -7 -84 -3 -194 7 -168 8 -177 35 -216 66
-101 231 -121 323 -40 63 55 68 75 72 259 3 106 0 174 -7 187 -11 21 -35 30
-66 24z"/>
<path d="M6674 3360 c-109 -34 -190 -141 -188 -249 2 -103 59 -192 151 -237
46 -23 69 -28 132 -28 78 1 152 23 178 55 13 16 20 209 9 228 -5 7 -45 11
-106 11 -108 0 -120 -6 -120 -64 0 -32 26 -46 77 -43 35 2 38 0 41 -25 4 -37
-26 -51 -95 -46 -89 8 -148 66 -148 148 0 57 24 96 76 122 42 22 120 23 161 2
30 -15 31 -15 64 17 40 39 34 58 -29 90 -47 25 -153 34 -203 19z"/>
<path d="M4115 3350 c-10 -16 -10 -474 0 -489 10 -17 238 -14 279 3 92 38 156
135 156 235 0 72 -20 124 -68 174 -65 68 -101 81 -238 85 -90 3 -124 1 -129
-8z m234 -125 c52 -26 81 -71 81 -123 0 -91 -56 -142 -155 -142 l-55 0 0 140
0 140 50 0 c28 0 64 -7 79 -15z"/>
<path d="M5392 3348 c-9 -9 -12 -77 -12 -243 0 -166 3 -234 12 -243 8 -8 54
-12 143 -12 147 0 182 11 223 70 34 50 24 141 -20 178 -14 11 -13 17 4 51 23
46 17 94 -16 143 -38 55 -76 68 -206 68 -77 0 -120 -4 -128 -12z m222 -108
c20 -7 26 -17 26 -39 0 -39 -26 -53 -93 -49 l-52 3 -3 39 c-2 24 2 42 10 47
18 12 81 11 112 -1z m31 -200 c18 -15 20 -51 3 -68 -7 -7 -42 -12 -85 -12
l-73 0 0 43 c0 24 3 47 8 51 11 12 130 0 147 -14z"/>
</g>
</svg>
