<svg width="112" height="48" viewBox="0 0 112 48" fill="none" xmlns="http://www.w3.org/2000/svg">
<path fill-rule="evenodd" clip-rule="evenodd" d="M14.5079 3.56114L20.3031 13.6402C21.184 13.2331 22.1457 12.9724 23.1566 12.8889V1.50751C20.0749 1.60846 17.152 2.33377 14.5079 3.56114ZM24.6458 1.50751V12.8954C25.6612 12.9882 26.626 13.2599 27.5078 13.6791L33.3189 3.57246C30.6684 2.33823 27.7369 1.60877 24.6458 1.50751ZM34.6502 4.24758L28.7929 14.4347C29.5951 15.0064 30.2944 15.7138 30.8578 16.5237L41.6556 10.2639C39.7656 7.80453 37.3803 5.74885 34.6502 4.24758ZM42.53 11.4836L31.6007 17.8197C32.0027 18.6894 32.2637 19.6381 32.3541 20.6355H46.0645C45.5647 17.2867 44.33 14.1793 42.53 11.4836ZM46.2371 22.1308H32.3605C32.2553 23.416 31.8671 24.6219 31.2583 25.6843C30.9296 26.258 30.5367 26.7896 30.0895 27.2694L32.2795 30.3063L34.3046 27.995C35.4017 26.743 37.3443 26.743 38.4414 27.995L43.8823 34.2046C45.4366 31.1422 46.3132 27.6748 46.3132 24C46.3132 23.3704 46.2875 22.747 46.2371 22.1308ZM43.115 35.5926L37.3233 28.9828C36.8193 28.4075 35.9267 28.4075 35.4227 28.9828L20.3201 46.219C21.4862 46.407 22.6823 46.5047 23.9012 46.5047C32.055 46.5047 39.1928 42.1327 43.115 35.5926ZM18.6339 45.8797L22.9377 40.9678L12.3053 28.8333C11.8012 28.258 10.9086 28.258 10.4046 28.8333L4.60432 35.453C7.64574 40.6084 12.6764 44.4389 18.6339 45.8797ZM3.84521 34.0556L9.28657 27.8455C10.3836 26.5935 12.3262 26.5935 13.4233 27.8455L15.5484 30.2709L17.6805 27.3142C17.2251 26.8326 16.8248 26.2976 16.4899 25.7195C15.8695 24.6486 15.4738 23.4302 15.3674 22.1308H1.56533C1.5149 22.747 1.48917 23.3704 1.48917 24C1.48917 27.6154 2.33767 31.03 3.84521 34.0556ZM1.73785 20.6355H15.3739C15.4654 19.6252 15.732 18.6649 16.1429 17.786L5.27219 11.4838C3.47228 14.1795 2.23765 17.2868 1.73785 20.6355ZM6.14661 10.2641L16.8914 16.4933C17.4687 15.671 18.1865 14.9555 19.01 14.3819L13.1756 4.2347C10.4357 5.73713 8.04203 7.79763 6.14661 10.2641ZM18.5723 26.0776L21.6698 21.7822C22.7697 20.257 25.0327 20.2569 26.1326 21.7822L29.1963 26.0307C29.4862 25.6929 29.7448 25.3273 29.9676 24.9386C30.5608 23.9033 30.9003 22.7029 30.9003 21.4206C30.9003 21.4092 30.9003 21.3979 30.9002 21.3867C30.8943 20.117 30.5555 18.9284 29.9673 17.9021C29.3559 16.8353 28.4747 15.9434 27.4177 15.321C26.3844 14.7125 25.1827 14.3613 23.8977 14.3552C23.8865 14.3552 23.8752 14.3551 23.864 14.3551C22.5956 14.3551 21.4078 14.6914 20.3816 15.2795C19.3026 15.898 18.4019 16.7952 17.7774 17.8731C17.1789 18.906 16.8337 20.105 16.8277 21.3867C16.8277 21.3979 16.8276 21.4092 16.8276 21.4206C16.8276 22.7149 17.1735 23.9258 17.7771 24.9676C18.0065 25.3635 18.2731 25.7352 18.5723 26.0776ZM16.557 31.4219L23.9295 39.8359L31.2709 31.4573L24.9264 22.6592C24.4211 21.9584 23.3813 21.9584 22.876 22.6592L16.557 31.4219ZM13.1265 2.57139C16.3649 0.926423 20.0264 0 23.9012 0C27.7858 0 31.456 0.931134 34.7005 2.58392C38.1532 4.34276 41.1226 6.91819 43.3574 10.057C45.6639 13.2966 47.1885 17.1375 47.6528 21.3C47.7516 22.1865 47.8024 23.0875 47.8024 24C47.8024 28.3184 46.6659 32.3726 44.6762 35.8749C40.5628 43.1158 32.8005 48 23.9012 48C14.9417 48 7.13462 43.0495 3.04314 35.7276C1.10493 32.2591 0 28.258 0 24C0 23.0875 0.0507538 22.1865 0.149638 21.3C0.613893 17.1376 2.13838 13.2968 4.44486 10.0572C6.68495 6.91086 9.66327 4.33056 13.1265 2.57139Z" fill="black"/>
<path d="M62.3027 12.2569V24.0782H60.7386V13.743H55.3232V24.0782H53.7591V12.2569H62.3027Z" fill="black"/>
<path d="M74.9532 22.5077C73.776 23.7011 72.3352 24.2978 70.631 24.2978C68.9268 24.2978 67.486 23.7011 66.3088 22.5077C65.1315 21.3143 64.5429 19.8676 64.5429 18.1676C64.5429 16.4563 65.1315 15.0096 66.3088 13.8275C67.486 12.6341 68.9268 12.0374 70.631 12.0374C72.3352 12.0374 73.776 12.6341 74.9532 13.8275C76.1417 15.0096 76.736 16.4563 76.736 18.1676C76.736 19.8676 76.1417 21.3143 74.9532 22.5077ZM67.3851 21.4438C68.2597 22.3219 69.3416 22.761 70.631 22.761C71.9204 22.761 72.9967 22.3219 73.8601 21.4438C74.7346 20.5544 75.1719 19.4623 75.1719 18.1676C75.1719 16.8616 74.7346 15.7695 73.8601 14.8914C72.9967 14.002 71.9204 13.5573 70.631 13.5573C69.3416 13.5573 68.2597 14.002 67.3851 14.8914C66.5218 15.7695 66.0901 16.8616 66.0901 18.1676C66.0901 19.4623 66.5218 20.5544 67.3851 21.4438Z" fill="black"/>
<path d="M83.2244 12.2569C84.312 12.2569 85.2146 12.6228 85.9322 13.3546C86.6609 14.0752 87.0253 14.9758 87.0253 16.0566C87.0253 17.1262 86.6609 18.0268 85.9322 18.7586C85.2146 19.4904 84.312 19.8563 83.2244 19.8563H80.5167V24.0782H78.9527V12.2569H83.2244ZM83.2244 18.3871C83.8747 18.3871 84.4129 18.1676 84.839 17.7285C85.265 17.2782 85.4781 16.7209 85.4781 16.0566C85.4781 15.3811 85.265 14.8238 84.839 14.3848C84.4129 13.9457 83.8747 13.7261 83.2244 13.7261H80.5167V18.3871H83.2244Z" fill="black"/>
<path d="M97.445 24.0782L96.4864 21.4269H91.1887L90.2301 24.0782H88.5651L92.9546 12.2569H94.7205L99.11 24.0782H97.445ZM91.7269 19.9577H95.9482L93.8291 14.1314L91.7269 19.9577Z" fill="black"/>
<path d="M109.948 17.948C110.486 18.207 110.912 18.5785 111.226 19.0626C111.552 19.5467 111.714 20.104 111.714 20.7345C111.714 21.6802 111.383 22.4739 110.722 23.1156C110.06 23.7574 109.253 24.0782 108.3 24.0782H103.221V12.2569H107.93C108.849 12.2569 109.629 12.5665 110.268 13.1857C110.907 13.8049 111.226 14.5705 111.226 15.4824C111.226 16.5295 110.8 17.3513 109.948 17.948ZM107.93 13.7261H104.785V17.3401H107.93C108.423 17.3401 108.838 17.1656 109.175 16.8166C109.511 16.4676 109.679 16.0397 109.679 15.5331C109.679 15.0377 109.505 14.6156 109.158 14.2665C108.821 13.9063 108.412 13.7261 107.93 13.7261ZM108.3 22.609C108.827 22.609 109.27 22.4232 109.629 22.0517C109.987 21.6802 110.167 21.2242 110.167 20.6838C110.167 20.1547 109.982 19.7043 109.612 19.3328C109.253 18.9613 108.816 18.7755 108.3 18.7755H104.785V22.609H108.3Z" fill="black"/>
<path d="M62.3027 26.9111V38.7324H60.7386V28.3972H55.3232V38.7324H53.7591V26.9111H62.3027Z" fill="black"/>
<path d="M75.1424 37.1619C73.9652 38.3553 72.5244 38.952 70.8202 38.952C69.116 38.952 67.6752 38.3553 66.498 37.1619C65.3207 35.9685 64.7321 34.5218 64.7321 32.8218C64.7321 31.1105 65.3207 29.6638 66.498 28.4817C67.6752 27.2883 69.116 26.6916 70.8202 26.6916C72.5244 26.6916 73.9652 27.2883 75.1424 28.4817C76.3309 29.6638 76.9252 31.1105 76.9252 32.8218C76.9252 34.5218 76.3309 35.9685 75.1424 37.1619ZM67.5743 36.098C68.4489 36.9761 69.5308 37.4152 70.8202 37.4152C72.1096 37.4152 73.186 36.9761 74.0493 36.098C74.9238 35.2086 75.3611 34.1165 75.3611 32.8218C75.3611 31.5158 74.9238 30.4237 74.0493 29.5456C73.186 28.6562 72.1096 28.2115 70.8202 28.2115C69.5308 28.2115 68.4489 28.6562 67.5743 29.5456C66.711 30.4237 66.2793 31.5158 66.2793 32.8218C66.2793 34.1165 66.711 35.2086 67.5743 36.098Z" fill="black"/>
<path d="M87.148 38.7324H85.3653L82.4726 34.0715L79.5799 38.7324H77.814L81.5981 32.6529L78.0327 26.9111H79.7986L82.4726 31.2175L85.1467 26.9111H86.9126L83.364 32.636L87.148 38.7324Z" fill="black"/>
<path d="M98.4479 37.1619C97.2707 38.3553 95.8299 38.952 94.1257 38.952C92.4215 38.952 90.9807 38.3553 89.8035 37.1619C88.6262 35.9685 88.0376 34.5218 88.0376 32.8218C88.0376 31.1105 88.6262 29.6638 89.8035 28.4817C90.9807 27.2883 92.4215 26.6916 94.1257 26.6916C95.8299 26.6916 97.2707 27.2883 98.4479 28.4817C99.6364 29.6638 100.231 31.1105 100.231 32.8218C100.231 34.5218 99.6364 35.9685 98.4479 37.1619ZM90.8798 36.098C91.7543 36.9761 92.8363 37.4152 94.1257 37.4152C95.4151 37.4152 96.4914 36.9761 97.3548 36.098C98.2293 35.2086 98.6666 34.1165 98.6666 32.8218C98.6666 31.5158 98.2293 30.4237 97.3548 29.5456C96.4914 28.6562 95.4151 28.2115 94.1257 28.2115C92.8363 28.2115 91.7543 28.6562 90.8798 29.5456C90.0165 30.4237 89.5848 31.5158 89.5848 32.8218C89.5848 34.1165 90.0165 35.2086 90.8798 36.098Z" fill="black"/>
<path d="M110.739 37.2463H112V40.9954H110.436V38.7324H102.666V40.9954H101.102V37.2463H102.128C102.857 36.3344 103.221 34.9496 103.221 33.092V26.9111H110.739V37.2463ZM103.894 37.2463H109.175V28.3803H104.785V33.1258C104.785 34.9158 104.488 36.2894 103.894 37.2463Z" fill="black"/>
</svg>
